# xmcd CD database file
#
# Track frame offsets:
#	150
#	16970
#	31425
#	50030
#	68081
#	80801
#	95600
#	116754
#	134923
#	149060
#	167944
#	184342
#
# Disc length: 2737 seconds
#
# Revision: 14
# Processed by: cddbd v1.5.2PL0 Copyright (c) Steve Scherf et al.
# Submitted via: CDex 1.70
#
DISCID=bf0aaf0c
DTITLE=enya - Amarantine
DYEAR=2005
DGENRE=New Age
TTITLE0=enya - less than a pearl
TTITLE1=enya - Amarantine
TTITLE2=enya - it's in the rain
TTITLE3=enya - if I could be where you are
TTITLE4=enya - the river sings
TTITLE5=enya - long long journey
TTITLE6=enya - sumiregusa
TTITLE7=enya - somebody said goodbye
TTITLE8=enya - a moment lost
TTITLE9=enya - drifting
TTITLE10=enya - amid the falling snow
TTITLE11=enya - water shows the hidden heart
EXTD=YEAR: 2005
EXTT0=
EXTT1=
EXTT2=
EXTT3=
EXTT4=
EXTT5=
EXTT6=
EXTT7=
EXTT8=
EXTT9=
EXTT10=
EXTT11=
PLAYORDER=
